<svg width="45" height="32" viewBox="0 0 45 32" fill="none" xmlns="http://www.w3.org/2000/svg">
<path fill-rule="evenodd" clip-rule="evenodd" d="M27.1694 23.1552V32H18.8462V0H23.0418H27.1694H32.7938C35.228 0 37.3447 0.483817 39.1439 1.45145C40.9431 2.40397 42.334 3.74959 43.3168 5.4883C44.3147 7.2119 44.8136 9.24545 44.8136 11.5889V11.6343C44.8136 13.9627 44.3147 15.9962 43.3168 17.7349C42.334 19.4585 40.9431 20.7966 39.1439 21.7491C37.3447 22.6865 35.228 23.1552 32.7938 23.1552H27.1694ZM27.1694 6.39546H30.798C32.5519 6.39546 33.9201 6.83392 34.9029 7.71084C35.9008 8.58776 36.3997 9.88046 36.3997 11.5889V11.6343C36.3997 13.3277 35.9008 14.6204 34.9029 15.5124C33.9201 16.4044 32.5519 16.8505 30.798 16.8505H27.1694V6.39546ZM14.5145 2.97094H8.7087V8.77676H14.5145V2.97094ZM8.7087 23.2913H14.5145V29.0971H8.7087V23.2913ZM8.70869 13.1311H2.90288V18.9369H8.70869V13.1311ZM0 20.3884H4.35436V24.7427H0V20.3884ZM13.0631 16.034H10.1602V18.9369H13.0631V16.034ZM14.5145 16.034H17.4174V18.9369H14.5145V16.034ZM15.966 13.1311H14.5145V14.5826H15.966V13.1311Z" fill="#2056E3"/>
<path fill-rule="evenodd" clip-rule="evenodd" d="M17.4174 20.3884H5.80582V32H17.4174V20.3884ZM15.966 21.7718H7.25727V30.4805H15.966V21.7718Z" fill="#2056E3"/>
<path fill-rule="evenodd" clip-rule="evenodd" d="M17.4174 0H5.80582V11.6116H17.4174V0ZM15.966 1.45144H7.25727V10.1602H15.966V1.45144Z" fill="#2056E3"/>
</svg>
