<svg width="80" height="80" viewBox="0 0 80 80" fill="none" xmlns="http://www.w3.org/2000/svg">
<path d="M80 40C80 62.0914 62.0914 80 40 80C17.9086 80 0 62.0914 0 40C0 17.9086 17.9086 0 40 0C62.0914 0 80 17.9086 80 40ZM3.6 40C3.6 60.1032 19.8968 76.4 40 76.4C60.1032 76.4 76.4 60.1032 76.4 40C76.4 19.8968 60.1032 3.6 40 3.6C19.8968 3.6 3.6 19.8968 3.6 40Z" fill="#56BCA6"/>
<path d="M22.1631 40L34.1631 52L58.1631 28" stroke="#56BCA6" stroke-width="4" stroke-linecap="round" stroke-linejoin="round"/>
</svg>
